<svg id="Layer_1" enable-background="new 0 0 512.132 512.132" height="512" viewBox="0 0 512.132 512.132" width="512" xmlns="http://www.w3.org/2000/svg"><g><g clip-rule="evenodd" fill-rule="evenodd"><path d="m453.195 410.954h-394.394c-.027 0-.054 0-.081 0-12.369.044-22.475 10.177-22.475 22.556 0 12.406 10.15 22.556 22.556 22.556h394.395c12.406 0 22.556-10.15 22.556-22.556 0-12.379-10.106-22.512-22.475-22.556-.027 0-.054 0-.082 0z" fill="#ffea60"/><path d="m58.801 410.954h394.395.081v-100.254c-.027 0-.054 0-.081 0h-394.395c-.027 0-.054 0-.081 0v100.254z" fill="#fff2a0"/><path d="m58.801 310.7h394.395.081c12.369-.044 22.475-10.177 22.475-22.556s-10.106-22.512-22.475-22.556c-.027 0-.054 0-.081 0h-394.34-.055c-12.406 0-22.556 10.15-22.556 22.556 0 12.379 10.106 22.512 22.475 22.556z" fill="#ffea60"/><ellipse cx="255.998" cy="185.386" fill="#ff5d7d" rx="29.967" ry="40.1"/><path d="m285.965 185.386c0 22.147-13.416 40.1-29.967 40.1-16.55 0-29.966-17.954-29.966-40.1 0-22.147 13.416-40.1 29.966-40.1s29.967 17.953 29.967 40.1zm-242.16 39.176c6.118 14.11 11.636 28.057 15.051 41.025h394.339.081c3.415-12.968 8.932-26.915 15.051-41.024-3.34 1.072-6.81 1.244-10.185.336-11.989-3.224-18.237-18.844-13.953-34.889 4.283-16.044 17.475-26.436 29.465-23.212 6.618 1.78 11.487 7.337 13.798 14.658 13.137-30.926 21.41-58.364 7.123-72.702-29.47-29.577-87.704 46.055-124.967 36.034-49.221-13.237-77.898-88.722-113.475-88.722-.023 0-.046 0-.069 0s-.045 0-.068 0c-35.578 0-64.254 75.485-113.475 88.722-37.262 10.021-95.496-65.612-124.967-36.034-14.287 14.339-6.014 41.776 7.122 72.701 2.313-7.32 7.182-12.878 13.8-14.657 11.99-3.224 25.181 7.168 29.465 23.213 4.284 16.044-1.963 31.664-13.953 34.889-3.373.906-6.843.735-10.183-.338z" fill="#fff2a0"/><g fill="#ff9346"><path d="m444.19 190.01c-4.284 16.044 1.963 31.664 13.953 34.889 3.375.908 6.845.736 10.185-.337 8.526-2.738 16.202-11.348 19.28-22.876 1.919-7.188 1.725-14.29-.153-20.231-2.313-7.32-7.182-12.878-13.8-14.657-11.99-3.224-25.181 7.168-29.465 23.212z"/><path d="m53.99 224.899c11.989-3.224 18.236-18.844 13.953-34.889s-17.475-26.437-29.465-23.213c-6.618 1.78-11.487 7.337-13.8 14.657-1.878 5.941-2.072 13.044-.153 20.231 3.078 11.528 10.755 20.138 19.281 22.876 3.339 1.074 6.809 1.245 10.184.338z"/></g></g><g><path d="m255.998 235.486c22.037 0 39.966-22.475 39.966-50.1s-17.929-50.101-39.966-50.101c-22.038 0-39.966 22.475-39.966 50.101s17.929 50.1 39.966 50.1zm0-80.201c10.822 0 19.966 13.784 19.966 30.101 0 16.316-9.144 30.1-19.966 30.1-10.823 0-19.966-13.784-19.966-30.1 0-16.317 9.144-30.101 19.966-30.101z"/><path d="m501.66 101.696c-21.686-21.763-51.731-3.226-78.241 13.13-18.03 11.124-38.465 23.732-51.213 20.306-20.171-5.425-38.752-26.236-56.721-46.363-19.606-21.96-38.126-42.702-59.488-42.702-22.094 0-39.724 20.37-58.389 41.936-17.534 20.259-35.665 41.208-57.683 47.129-12.744 3.425-33.181-9.182-51.211-20.306-26.51-16.354-56.557-34.892-78.242-13.13-19.049 19.118-8.594 51.182 3.633 80.418-1.454 6.806-1.308 14.413.758 22.152 3.149 11.796 10.293 21.643 19.6 27.016.578.334 1.163.646 1.751.94 3.329 7.802 6.995 16.85 9.982 25.905-11.71 4.936-19.951 16.531-19.951 30.016 0 14.433 9.444 26.696 22.475 30.951v83.465c-13.03 4.255-22.475 16.517-22.475 30.951 0 17.952 14.604 32.556 32.556 32.556h394.395c17.951 0 32.556-14.604 32.556-32.556 0-14.433-9.444-26.696-22.475-30.951v-83.465c13.031-4.255 22.475-16.518 22.475-30.951 0-13.439-8.185-25-19.831-29.964 2.99-9.072 6.663-18.141 9.998-25.956.589-.295 1.173-.607 1.752-.941 9.307-5.373 16.45-15.22 19.6-27.016 2.066-7.739 2.211-15.346.758-22.152 12.225-29.237 22.68-61.301 3.631-80.418zm-477.02 14.116c9.771-9.804 27.555-.016 53.573 16.036 22.527 13.897 45.823 28.269 66.907 22.598 27.936-7.513 49.015-31.867 67.612-53.354 15.588-18.012 30.313-35.024 43.266-35.024 12.407 0 28.756 18.313 44.569 36.022 18.992 21.273 40.52 45.384 66.446 52.357 21.083 5.667 44.38-8.7 66.907-22.598 26.02-16.052 43.806-25.837 53.572-16.036 8.131 8.16 4.086 26.637-2.7 45.289-2.56-1.766-5.415-3.12-8.54-3.96h-.001c-7.239-1.947-15.097-.784-22.124 3.273-9.307 5.373-16.45 15.22-19.6 27.017-5.569 20.862 2.756 40.793 19.03 46.5-2.759 6.865-5.508 14.255-7.802 21.656h-379.377c-2.295-7.401-5.044-14.79-7.803-21.656 16.273-5.707 24.599-25.638 19.029-46.501-3.149-11.796-10.293-21.644-19.6-27.017-7.027-4.058-14.884-5.22-22.124-3.273-3.125.84-5.98 2.194-8.54 3.96-6.786-18.652-10.831-37.129-2.7-45.289zm16.435 60.642c2.657-.713 5.235.301 6.929 1.28 4.671 2.697 8.514 8.25 10.277 14.854 3.053 11.437-1.18 21.117-6.889 22.653-2.656.714-5.235-.302-6.929-1.28-4.671-2.697-8.513-8.25-10.276-14.855-3.053-11.435 1.179-21.116 6.888-22.652zm412.121 269.612h-394.395c-6.923 0-12.556-5.633-12.556-12.556s5.632-12.556 12.556-12.556h394.395c6.923 0 12.556 5.633 12.556 12.556s-5.634 12.556-12.556 12.556zm0-145.366h-152.202c-5.522 0-10 4.477-10 10s4.478 10 10 10h142.282v80.254h-374.557v-80.254h142.275c5.523 0 10-4.477 10-10s-4.477-10-10-10h-152.193c-6.923 0-12.556-5.633-12.556-12.557 0-6.922 5.63-12.553 12.551-12.556.018 0 .035.002.053.002.013 0 .025-.002.038-.002h394.308c6.923 0 12.556 5.633 12.556 12.556 0 6.924-5.633 12.557-12.555 12.557zm24.75-101.593c-1.763 6.604-5.604 12.158-10.276 14.855-1.694.979-4.273 1.993-6.929 1.28-5.709-1.536-9.942-11.216-6.889-22.652 1.763-6.604 5.604-12.158 10.276-14.855 1.297-.749 3.111-1.52 5.083-1.52.604 0 1.224.072 1.847.24h-.001c5.709 1.535 9.942 11.216 6.889 22.652z"/><path d="m255.998 300.7h-.007c-5.523 0-9.996 4.477-9.996 10s4.48 10 10.003 10c5.522 0 10-4.477 10-10s-4.477-10-10-10z"/></g></g></svg>